<svg width="76" height="76" viewBox="0 0 76 76" fill="none" xmlns="http://www.w3.org/2000/svg">
<path d="M68.1021 2.7261H7.8701C6.50348 2.71219 5.18715 3.24099 4.20996 4.19647C3.23276 5.15195 2.67452 6.45606 2.65771 7.82265V68.2979C2.67756 69.6625 3.23714 70.9636 4.214 71.9166C5.19086 72.8696 6.50546 73.3968 7.8701 73.3829H68.1021C69.4688 73.3937 70.7843 72.8631 71.761 71.9071C72.7377 70.951 73.2962 69.6472 73.3145 68.2805V7.80528C73.2901 6.4427 72.7289 5.1448 71.7529 4.19371C70.7769 3.24261 69.4649 2.7152 68.1021 2.7261Z" fill="#0076B2"/>
<path d="M13.1172 29.2108H23.6057V62.9581H13.1172V29.2108ZM18.3643 12.4153C19.5673 12.4153 20.7433 12.7721 21.7434 13.4406C22.7436 14.1091 23.523 15.0591 23.9831 16.1707C24.4432 17.2822 24.5633 18.5052 24.3282 19.685C24.0931 20.8647 23.5133 21.9483 22.6623 22.7985C21.8112 23.6487 20.7271 24.2275 19.5471 24.4614C18.3671 24.6954 17.1442 24.5742 16.0332 24.113C14.9221 23.6519 13.9727 22.8715 13.3052 21.8707C12.6377 20.8699 12.2821 19.6936 12.2832 18.4907C12.2847 16.8789 12.9261 15.3336 14.0664 14.1944C15.2066 13.0552 16.7525 12.4153 18.3643 12.4153ZM30.1849 29.2108H40.239V33.844H40.378C41.7795 31.1915 45.1965 28.3942 50.2989 28.3942C60.9206 28.371 62.8897 35.3614 62.8897 44.4252V62.9581H52.4012V46.5391C52.4012 42.6298 52.3317 37.597 46.9514 37.597C41.571 37.597 40.656 41.8595 40.656 46.2843V62.9581H30.1849V29.2108Z" fill="white"/>
</svg>
