<svg width="73" height="76" viewBox="0 0 73 76" fill="none" xmlns="http://www.w3.org/2000/svg">
<path d="M66.0901 31.9226H63.6798V31.7931H36.7491V44.2771H53.6601C51.1929 51.5443 44.5635 56.7611 36.7491 56.7611C26.8342 56.7611 18.7954 48.3765 18.7954 38.0351C18.7954 27.6937 26.8342 19.3091 36.7491 19.3091C41.3258 19.3091 45.4896 21.11 48.66 24.0515L57.1237 15.2238C51.7794 10.0289 44.6308 6.82515 36.7491 6.82515C20.2242 6.82515 6.82617 20.7994 6.82617 38.0351C6.82617 55.2708 20.2242 69.2451 36.7491 69.2451C53.2741 69.2451 66.6721 55.2708 66.6721 38.0351C66.6721 35.9425 66.4656 33.8998 66.0901 31.9226Z" fill="#FFC107"/>
<path d="M10.2773 23.5084L20.1085 31.0285C22.7687 24.1592 29.2111 19.3091 36.7502 19.3091C41.3269 19.3091 45.4907 21.11 48.661 24.0515L57.1247 15.2238C51.7805 10.0289 44.6319 6.82515 36.7502 6.82515C25.2568 6.82515 15.2894 13.593 10.2773 23.5084Z" fill="#FF3D00"/>
<path d="M36.7502 69.2451C44.4793 69.2451 51.5023 66.16 56.8121 61.143L47.5509 52.9691C44.4457 55.4322 40.6514 56.7643 36.7502 56.7611C28.9673 56.7611 22.3588 51.5849 19.8692 44.3614L10.1113 52.2029C15.0636 62.3102 25.1207 69.2451 36.7502 69.2451Z" fill="#4CAF50"/>
<path d="M66.091 31.9227H63.6807V31.7931H36.75V44.2771H53.661C52.4808 47.7358 50.355 50.7581 47.5462 52.9707L47.5507 52.9675L56.8118 61.1414C56.1565 61.7625 66.673 53.6401 66.673 38.0351C66.673 35.9425 66.4665 33.8998 66.091 31.9227Z" fill="#1976D2"/>
</svg>
