<svg width="73" height="76" viewBox="0 0 73 76" fill="none" xmlns="http://www.w3.org/2000/svg">
<path d="M66.089 31.9227H63.6787V31.7931H36.748V44.2771H53.659C51.1918 51.5444 44.5624 56.7611 36.748 56.7611C26.8331 56.7611 18.7943 48.3765 18.7943 38.0351C18.7943 27.6937 26.8331 19.3091 36.748 19.3091C41.3247 19.3091 45.4885 21.11 48.6589 24.0515L57.1226 15.2238C51.7783 10.0289 44.6297 6.82516 36.748 6.82516C20.2231 6.82516 6.82507 20.7994 6.82507 38.0351C6.82507 55.2708 20.2231 69.2451 36.748 69.2451C53.273 69.2451 66.671 55.2708 66.671 38.0351C66.671 35.9425 66.4645 33.8998 66.089 31.9227Z" fill="#FFC107"/>
<path d="M10.2752 23.5084L20.1064 31.0285C22.7665 24.1592 29.2089 19.3091 36.748 19.3091C41.3248 19.3091 45.4885 21.11 48.6589 24.0515L57.1226 15.2238C51.7783 10.0289 44.6297 6.82516 36.748 6.82516C25.2546 6.82516 15.2873 13.593 10.2752 23.5084Z" fill="#FF3D00"/>
<path d="M36.748 69.2451C44.4771 69.2451 51.5001 66.16 56.8099 61.143L47.5487 52.9691C44.4436 55.4322 40.6492 56.7643 36.748 56.7611C28.9651 56.7611 22.3566 51.5849 19.867 44.3614L10.1091 52.2029C15.0614 62.3102 25.1185 69.2451 36.748 69.2451Z" fill="#4CAF50"/>
<path d="M66.089 31.9227H63.6787V31.7931H36.748V44.2771H53.659C52.4789 47.7358 50.3531 50.7581 47.5442 52.9707L47.5487 52.9675L56.8099 61.1414C56.1546 61.7625 66.671 53.6401 66.671 38.0351C66.671 35.9425 66.4645 33.8998 66.089 31.9227Z" fill="#1976D2"/>
</svg>
