<svg width="21" height="21" viewBox="0 0 21 21" fill="none" xmlns="http://www.w3.org/2000/svg">
<path d="M10.4985 1.18079C5.43695 1.18079 1.33398 5.28375 1.33398 10.3453C1.33398 15.4069 5.43695 19.5099 10.4985 19.5099C15.5601 19.5099 19.6631 15.4069 19.6631 10.3453C19.6631 5.28375 15.5601 1.18079 10.4985 1.18079Z" stroke="#363636" stroke-width="1.64962" stroke-linecap="round" stroke-linejoin="round"/>
<path d="M3.41602 16.1612C3.41602 16.1612 5.45879 13.5529 10.4993 13.5529C15.5398 13.5529 17.5835 16.1612 17.5835 16.1612M10.4993 10.3453C11.2285 10.3453 11.9278 10.0557 12.4434 9.54007C12.959 9.02447 13.2486 8.32516 13.2486 7.59598C13.2486 6.8668 12.959 6.16749 12.4434 5.65189C11.9278 5.13628 11.2285 4.84662 10.4993 4.84662C9.77011 4.84662 9.0708 5.13628 8.55519 5.65189C8.03959 6.16749 7.74992 6.8668 7.74992 7.59598C7.74992 8.32516 8.03959 9.02447 8.55519 9.54007C9.0708 10.0557 9.77011 10.3453 10.4993 10.3453Z" stroke="#363636" stroke-width="1.64962" stroke-linecap="round" stroke-linejoin="round"/>
</svg>
