<svg width="64" height="63" viewBox="0 0 64 63" fill="none" xmlns="http://www.w3.org/2000/svg">
<g clip-path="url(#clip0_102_1754)">
<path d="M22.685 2.09691C16.4335 4.26565 11.0421 8.38198 7.30285 13.8413C3.56362 19.3006 1.67362 25.8151 1.91045 32.428C2.14729 39.0408 4.49848 45.4034 8.61868 50.5812C12.7389 55.7591 18.4109 59.4792 24.8016 61.1951C29.9827 62.532 35.411 62.5907 40.6198 61.3662C45.3385 60.3063 49.701 58.0391 53.2802 54.7867C57.0054 51.2982 59.7093 46.8604 61.1013 41.9503C62.6138 36.6107 62.883 30.9956 61.8883 25.5358H32.7938V37.6047H49.6434C49.3066 39.5296 48.585 41.3668 47.5217 43.0063C46.4584 44.6458 45.0752 46.054 43.455 47.1465C41.3977 48.508 39.0782 49.4238 36.6457 49.835C34.2062 50.2887 31.704 50.2887 29.2645 49.835C26.7919 49.3243 24.4528 48.3038 22.3966 46.8385C19.093 44.4999 16.6123 41.1776 15.3088 37.3456C13.9835 33.4418 13.9835 29.2098 15.3088 25.306C16.2367 22.5697 17.7706 20.0783 19.7961 18.0177C22.1141 15.6164 25.0486 13.8999 28.2779 13.0566C31.5071 12.2133 34.9063 12.2757 38.1024 13.2371C40.5993 14.0032 42.8825 15.3423 44.7699 17.1476C46.6698 15.2575 48.5664 13.3626 50.4597 11.4627C51.4374 10.441 52.503 9.4683 53.466 8.42223C50.5845 5.74114 47.2025 3.6548 43.5136 2.28266C36.7958 -0.156594 29.4453 -0.222146 22.685 2.09691Z" fill="white"/>
<path d="M22.6843 2.09691C29.444 -0.223727 36.7945 -0.1599 43.5129 2.27777C47.2024 3.65922 50.5829 5.75562 53.4603 8.44666C52.4827 9.49273 51.4513 10.4704 50.4541 11.4871C48.5575 13.3805 46.6625 15.2673 44.7691 17.1476C42.8818 15.3423 40.5985 14.0032 38.1016 13.2371C34.9066 12.2724 31.5076 12.2063 28.2775 13.0462C25.0473 13.886 22.111 15.5994 19.7905 17.9982C17.765 20.0587 16.231 22.5501 15.3031 25.2865L5.16992 17.4409C8.797 10.2483 15.0771 4.74642 22.6843 2.09691Z" fill="#E33629"/>
<path d="M2.48112 25.2132C3.02537 22.5138 3.92962 19.8997 5.16962 17.441L15.3028 25.3061C13.9776 29.2099 13.9776 33.4419 15.3028 37.3457C11.9267 39.9527 8.54899 42.5728 5.16962 45.2059C2.06636 39.0288 1.11992 31.9907 2.48112 25.2132Z" fill="#F8BD00"/>
<path d="M32.7932 25.5309H61.8877C62.8824 30.9908 62.6132 36.6059 61.1007 41.9455C59.7087 46.8556 57.0048 51.2934 53.2796 54.7819C50.0094 52.2302 46.7245 49.6981 43.4543 47.1465C45.0756 46.0529 46.4594 44.6432 47.5228 43.002C48.5862 41.3607 49.3073 39.5216 49.6428 37.595H32.7932C32.7883 33.5769 32.7932 29.5539 32.7932 25.5309Z" fill="#587DBD"/>
<path d="M5.16602 45.2059C8.54538 42.5989 11.9231 39.9788 15.2992 37.3457C16.6054 41.179 19.0896 44.5015 22.3969 46.8386C24.4594 48.297 26.8036 49.3093 29.2794 49.8106C31.7189 50.2643 34.2211 50.2643 36.6606 49.8106C39.0931 49.3994 41.4126 48.4836 43.4699 47.1221C46.7401 49.6737 50.0249 52.2058 53.2951 54.7574C49.7164 58.0116 45.3539 60.2805 40.6347 61.3418C35.4259 62.5663 29.9976 62.5076 24.8165 61.1707C20.7188 60.0766 16.8912 58.1479 13.5737 55.5053C10.0626 52.7172 7.19478 49.2041 5.16602 45.2059Z" fill="#319F43"/>
</g>
<defs>
<clipPath id="clip0_102_1754">
<rect width="62.5688" height="62.5688" fill="white" transform="translate(0.888672 0.0390015)"/>
</clipPath>
</defs>
</svg>
