<svg width="40" height="39" viewBox="0 0 40 39" fill="none" xmlns="http://www.w3.org/2000/svg">
<path d="M26.4384 16.1839L17.8844 24.7379L13.9639 20.8173L14.969 19.8122L17.8844 22.7206L25.4333 15.1788L26.4384 16.1839Z" fill="#3B82F6"/>
<path d="M20.0223 35.7868C16.3067 34.8512 13.2391 32.7192 10.8194 29.3906C8.39965 26.0621 7.19034 22.3668 7.19141 18.3047V8.5211L20.0223 3.7095L32.8533 8.5211V18.3047C32.8533 22.3678 31.644 26.0637 29.2253 29.3922C26.8067 32.7208 23.739 34.8523 20.0223 35.7868ZM20.0223 32.4187C22.8024 31.5366 25.1013 29.7723 26.919 27.126C28.7367 24.4796 29.6455 21.5392 29.6455 18.3047V10.7264L20.0223 7.11772L10.3991 10.7264V18.3047C10.3991 21.5392 11.308 24.4796 13.1257 27.126C14.9434 29.7723 17.2423 31.5366 20.0223 32.4187Z" fill="#3B82F6"/>
</svg>
