<svg width="36" height="36" viewBox="0 0 36 36" fill="none" xmlns="http://www.w3.org/2000/svg">
<path d="M29.4 31.5L19.95 22.05C19.2 22.65 18.3375 23.125 17.3625 23.475C16.3875 23.825 15.35 24 14.25 24C11.525 24 9.219 23.056 7.332 21.168C5.445 19.28 4.501 16.974 4.5 14.25C4.5 11.525 5.444 9.219 7.332 7.332C9.22 5.445 11.526 4.501 14.25 4.5C16.975 4.5 19.2815 5.444 21.1695 7.332C23.0575 9.22 24.001 11.526 24 14.25C24 15.35 23.825 16.3875 23.475 17.3625C23.125 18.3375 22.65 19.2 22.05 19.95L31.5 29.4L29.4 31.5ZM14.25 21C16.125 21 17.719 20.344 19.032 19.032C20.345 17.72 21.001 16.126 21 14.25C21 12.375 20.344 10.7815 19.032 9.4695C17.72 8.1575 16.126 7.501 14.25 7.5C12.375 7.5 10.7815 8.1565 9.4695 9.4695C8.1575 10.7825 7.501 12.376 7.5 14.25C7.5 16.125 8.1565 17.719 9.4695 19.032C10.7825 20.345 12.376 21.001 14.25 21Z" fill="#5B5B5B"/>
</svg>
