<svg width="31" height="30" viewBox="0 0 31 30" fill="none" xmlns="http://www.w3.org/2000/svg">
<path d="M5.5 25C4.8125 25 4.22417 24.7554 3.735 24.2663C3.24583 23.7771 3.00083 23.1883 3 22.5V7.5C3 6.8125 3.245 6.22417 3.735 5.735C4.225 5.24583 4.81333 5.00083 5.5 5H25.5C26.1875 5 26.7763 5.245 27.2663 5.735C27.7563 6.225 28.0008 6.81333 28 7.5V22.5C28 23.1875 27.7554 23.7763 27.2663 24.2663C26.7771 24.7563 26.1883 25.0008 25.5 25H5.5ZM15.5 16.25L5.5 10V22.5H25.5V10L15.5 16.25ZM15.5 13.75L25.5 7.5H5.5L15.5 13.75ZM5.5 10V7.5V22.5V10Z" fill="#4E4E4E"/>
</svg>
