<svg width="49" height="49" viewBox="0 0 49 49" fill="none" xmlns="http://www.w3.org/2000/svg">
<path d="M15.9257 4.08325H33.0757C39.609 4.08325 44.9173 9.39159 44.9173 15.9249V33.0749C44.9173 36.2155 43.6697 39.2275 41.449 41.4482C39.2282 43.669 36.2163 44.9166 33.0757 44.9166H15.9257C9.39232 44.9166 4.08398 39.6082 4.08398 33.0749V15.9249C4.08398 12.7843 5.33159 9.77234 7.55233 7.5516C9.77307 5.33085 12.785 4.08325 15.9257 4.08325ZM15.5173 8.16658C13.568 8.16658 11.6985 8.94096 10.3201 10.3194C8.94169 11.6977 8.16732 13.5672 8.16732 15.5166V33.4832C8.16732 37.5462 11.4544 40.8332 15.5173 40.8332H33.484C35.4333 40.8332 37.3028 40.0589 38.6812 38.6805C40.0596 37.3021 40.834 35.4326 40.834 33.4832V15.5166C40.834 11.4537 37.5469 8.16658 33.484 8.16658H15.5173ZM35.2194 11.2291C35.8963 11.2291 36.5454 11.498 37.024 11.9766C37.5026 12.4552 37.7715 13.1043 37.7715 13.7812C37.7715 14.458 37.5026 15.1072 37.024 15.5858C36.5454 16.0644 35.8963 16.3333 35.2194 16.3333C34.5425 16.3333 33.8934 16.0644 33.4148 15.5858C32.9362 15.1072 32.6673 14.458 32.6673 13.7812C32.6673 13.1043 32.9362 12.4552 33.4148 11.9766C33.8934 11.498 34.5425 11.2291 35.2194 11.2291ZM24.5006 14.2916C27.2081 14.2916 29.8046 15.3671 31.719 17.2815C33.6335 19.196 34.709 21.7925 34.709 24.4999C34.709 27.2073 33.6335 29.8039 31.719 31.7183C29.8046 33.6327 27.2081 34.7083 24.5006 34.7083C21.7932 34.7083 19.1967 33.6327 17.2823 31.7183C15.3678 29.8039 14.2923 27.2073 14.2923 24.4999C14.2923 21.7925 15.3678 19.196 17.2823 17.2815C19.1967 15.3671 21.7932 14.2916 24.5006 14.2916ZM24.5006 18.3749C22.8762 18.3749 21.3183 19.0202 20.1696 20.1689C19.021 21.3175 18.3757 22.8755 18.3757 24.4999C18.3757 26.1244 19.021 27.6823 20.1696 28.8309C21.3183 29.9796 22.8762 30.6249 24.5006 30.6249C26.1251 30.6249 27.683 29.9796 28.8317 28.8309C29.9803 27.6823 30.6256 26.1244 30.6256 24.4999C30.6256 22.8755 29.9803 21.3175 28.8317 20.1689C27.683 19.0202 26.1251 18.3749 24.5006 18.3749Z" fill="white"/>
</svg>
