<svg width="30" height="30" viewBox="0 0 30 30" fill="none" xmlns="http://www.w3.org/2000/svg">
<g clip-path="url(#clip0_56_224)">
<path d="M15 2.5C17.9837 2.5 20.8452 3.68526 22.955 5.79505C25.0647 7.90483 26.25 10.7663 26.25 13.75C26.25 17.5925 24.155 20.7375 21.9475 22.9938C20.8444 24.1086 19.641 25.1196 18.3525 26.0138L17.82 26.3762L17.57 26.5425L17.0988 26.8425L16.6788 27.0988L16.1588 27.4012C15.8056 27.6022 15.4063 27.7079 15 27.7079C14.5937 27.7079 14.1944 27.6022 13.8412 27.4012L13.3212 27.0988L12.6713 26.6987L12.4312 26.5425L11.9187 26.2013C10.5287 25.2604 9.23383 24.1861 8.0525 22.9938C5.845 20.7362 3.75 17.5925 3.75 13.75C3.75 10.7663 4.93526 7.90483 7.04505 5.79505C9.15483 3.68526 12.0163 2.5 15 2.5ZM15 10C14.5075 10 14.0199 10.097 13.5649 10.2855C13.11 10.4739 12.6966 10.7501 12.3483 11.0983C12.0001 11.4466 11.7239 11.86 11.5355 12.3149C11.347 12.7699 11.25 13.2575 11.25 13.75C11.25 14.2425 11.347 14.7301 11.5355 15.1851C11.7239 15.64 12.0001 16.0534 12.3483 16.4017C12.6966 16.7499 13.11 17.0261 13.5649 17.2145C14.0199 17.403 14.5075 17.5 15 17.5C15.9946 17.5 16.9484 17.1049 17.6517 16.4017C18.3549 15.6984 18.75 14.7446 18.75 13.75C18.75 12.7554 18.3549 11.8016 17.6517 11.0983C16.9484 10.3951 15.9946 10 15 10Z" fill="#4E4E4E"/>
</g>
<defs>
<clipPath id="clip0_56_224">
<rect width="30" height="30" fill="white"/>
</clipPath>
</defs>
</svg>
