<svg width="24" height="25" viewBox="0 0 24 25" fill="none" xmlns="http://www.w3.org/2000/svg">
<g clip-path="url(#clip0_102_1750)">
<path fill-rule="evenodd" clip-rule="evenodd" d="M12.9613 15.9474C12.778 16.1307 12.5294 16.2337 12.2701 16.2337C12.0109 16.2337 11.7623 16.1307 11.579 15.9474L6.04846 10.4169C5.95509 10.3267 5.88061 10.2189 5.82937 10.0996C5.77813 9.98031 5.75116 9.85203 5.75004 9.72222C5.74891 9.59241 5.77365 9.46367 5.8228 9.34352C5.87196 9.22338 5.94455 9.11422 6.03634 9.02243C6.12814 8.93063 6.23729 8.85804 6.35744 8.80889C6.47759 8.75973 6.60632 8.73499 6.73613 8.73612C6.86594 8.73725 6.99423 8.76422 7.1135 8.81546C7.23278 8.86669 7.34066 8.94117 7.43084 9.03454L12.2701 13.8739L17.1095 9.03454C17.2938 8.85646 17.5408 8.75792 17.7971 8.76015C18.0535 8.76237 18.2987 8.86519 18.4799 9.04645C18.6612 9.22772 18.764 9.47292 18.7662 9.72925C18.7685 9.98559 18.6699 10.2325 18.4918 10.4169L12.9613 15.9474Z" fill="black"/>
</g>
<defs>
<clipPath id="clip0_102_1750">
<rect width="23.4633" height="23.4633" fill="white" transform="translate(0.537109 0.591736)"/>
</clipPath>
</defs>
</svg>
