<svg width="50" height="50" viewBox="0 0 50 50" fill="none" xmlns="http://www.w3.org/2000/svg">
<path d="M36.0332 32.7168C36.2517 32.9345 36.425 33.1933 36.5433 33.4782C36.6616 33.763 36.7225 34.0685 36.7225 34.377C36.7225 34.6854 36.6616 34.9909 36.5433 35.2757C36.425 35.5606 36.2517 35.8194 36.0332 36.0371L26.6582 45.4121C26.4404 45.6306 26.1817 45.804 25.8968 45.9223C25.6119 46.0406 25.3065 46.1015 24.998 46.1015C24.6896 46.1015 24.3841 46.0406 24.0992 45.9223C23.8143 45.804 23.5556 45.6306 23.3379 45.4121L13.9629 36.0371C13.5226 35.5968 13.2752 34.9996 13.2752 34.377C13.2752 33.7543 13.5226 33.1571 13.9629 32.7168C14.4032 32.2765 15.0003 32.0291 15.623 32.0291C16.2457 32.0291 16.8429 32.2765 17.2832 32.7168L25 40.4297L32.7168 32.7109C32.9348 32.4934 33.1936 32.321 33.4784 32.2035C33.7631 32.0861 34.0682 32.0259 34.3762 32.0265C34.6842 32.027 34.9891 32.0883 35.2734 32.2067C35.5577 32.3252 35.8159 32.4985 36.0332 32.7168ZM17.2832 17.2871L25 9.57031L32.7168 17.2891C33.1571 17.7294 33.7542 17.9767 34.3769 17.9767C34.9996 17.9767 35.5968 17.7294 36.0371 17.2891C36.4774 16.8488 36.7247 16.2516 36.7247 15.6289C36.7247 15.0062 36.4774 14.4091 36.0371 13.9688L26.6621 4.59375C26.4443 4.37525 26.1856 4.20188 25.9007 4.08359C25.6158 3.9653 25.3104 3.9044 25.0019 3.9044C24.6935 3.9044 24.388 3.9653 24.1031 4.08359C23.8182 4.20188 23.5595 4.37525 23.3418 4.59375L13.9668 13.9688C13.5265 14.4091 13.2791 15.0062 13.2791 15.6289C13.2791 16.2516 13.5265 16.8488 13.9668 17.2891C14.4071 17.7294 15.0043 17.9767 15.6269 17.9767C16.2496 17.9767 16.8468 17.7294 17.2871 17.2891L17.2832 17.2871Z" fill="#909090"/>
</svg>
