<svg width="39" height="40" viewBox="0 0 39 40" fill="none" xmlns="http://www.w3.org/2000/svg">
<path d="M27.4391 26.5644C27.5508 26.676 27.6395 26.8086 27.7 26.9545C27.7605 27.1004 27.7916 27.2568 27.7916 27.4147C27.7916 27.5727 27.7605 27.7291 27.7 27.875C27.6395 28.0209 27.5508 28.1534 27.4391 28.2651L20.2278 35.4764C20.1162 35.5881 19.9836 35.6768 19.8377 35.7372C19.6918 35.7977 19.5354 35.8289 19.3775 35.8289C19.2195 35.8289 19.0631 35.7977 18.9172 35.7372C18.7713 35.6768 18.6388 35.5881 18.5271 35.4764L11.3158 28.2651C11.0903 28.0395 10.9636 27.7337 10.9636 27.4147C10.9636 27.0958 11.0903 26.7899 11.3158 26.5644C11.5414 26.3389 11.8472 26.2122 12.1662 26.2122C12.4851 26.2122 12.791 26.3389 13.0165 26.5644L19.3775 32.9269L25.7384 26.5644C25.8501 26.4527 25.9826 26.364 26.1285 26.3035C26.2744 26.243 26.4308 26.2119 26.5888 26.2119C26.7467 26.2119 26.9031 26.243 27.049 26.3035C27.1949 26.364 27.3275 26.4527 27.4391 26.5644ZM13.0165 13.8425L19.3775 7.48L25.7384 13.8425C25.964 14.068 26.2698 14.1947 26.5888 14.1947C26.9077 14.1947 27.2136 14.068 27.4391 13.8425C27.6646 13.6169 27.7913 13.3111 27.7913 12.9921C27.7913 12.6732 27.6646 12.3673 27.4391 12.1418L20.2278 4.93051C20.1162 4.81876 19.9836 4.73011 19.8377 4.66963C19.6918 4.60914 19.5354 4.57801 19.3775 4.57801C19.2195 4.57801 19.0631 4.60914 18.9172 4.66963C18.7713 4.73011 18.6388 4.81876 18.5271 4.93051L11.3158 12.1418C11.0903 12.3673 10.9636 12.6732 10.9636 12.9921C10.9636 13.3111 11.0903 13.6169 11.3158 13.8425C11.5414 14.068 11.8472 14.1947 12.1662 14.1947C12.4851 14.1947 12.791 14.068 13.0165 13.8425Z" fill="#A4A4A4"/>
</svg>
