<svg width="39" height="40" viewBox="0 0 39 40" fill="none" xmlns="http://www.w3.org/2000/svg">
<path d="M27.4391 26.2404C27.5508 26.3521 27.6395 26.4846 27.7 26.6305C27.7605 26.7764 27.7916 26.9328 27.7916 27.0908C27.7916 27.2487 27.7605 27.4051 27.7 27.551C27.6395 27.6969 27.5508 27.8295 27.4391 27.9411L20.2278 35.1524C20.1162 35.2641 19.9836 35.3528 19.8377 35.4133C19.6918 35.4738 19.5354 35.5049 19.3775 35.5049C19.2195 35.5049 19.0631 35.4738 18.9172 35.4133C18.7713 35.3528 18.6388 35.2641 18.5271 35.1524L11.3158 27.9411C11.0903 27.7156 10.9636 27.4097 10.9636 27.0908C10.9636 26.7718 11.0903 26.466 11.3158 26.2404C11.5414 26.0149 11.8472 25.8882 12.1662 25.8882C12.4851 25.8882 12.791 26.0149 13.0165 26.2404L19.3775 32.6029L25.7384 26.2404C25.8501 26.1287 25.9826 26.04 26.1285 25.9795C26.2744 25.9191 26.4308 25.8879 26.5888 25.8879C26.7467 25.8879 26.9031 25.9191 27.049 25.9795C27.1949 26.04 27.3275 26.1287 27.4391 26.2404ZM13.0165 13.5185L19.3775 7.15603L25.7384 13.5185C25.964 13.744 26.2698 13.8707 26.5888 13.8707C26.9077 13.8707 27.2136 13.744 27.4391 13.5185C27.6646 13.293 27.7913 12.9871 27.7913 12.6682C27.7913 12.3492 27.6646 12.0434 27.4391 11.8178L20.2278 4.60654C20.1162 4.49479 19.9836 4.40614 19.8377 4.34566C19.6918 4.28518 19.5354 4.25404 19.3775 4.25404C19.2195 4.25404 19.0631 4.28518 18.9172 4.34566C18.7713 4.40614 18.6388 4.49479 18.5271 4.60654L11.3158 11.8178C11.0903 12.0434 10.9636 12.3492 10.9636 12.6682C10.9636 12.9871 11.0903 13.293 11.3158 13.5185C11.5414 13.744 11.8472 13.8707 12.1662 13.8707C12.4851 13.8707 12.791 13.744 13.0165 13.5185Z" fill="#A4A4A4"/>
</svg>
