<svg width="30" height="30" viewBox="0 0 30 30" fill="none" xmlns="http://www.w3.org/2000/svg">
<path d="M17.8442 4.44493C17.876 4.32595 17.9309 4.21441 18.0059 4.11668C18.0808 4.01894 18.1743 3.93694 18.2809 3.87534C18.3876 3.81374 18.5053 3.77376 18.6274 3.75769C18.7496 3.74161 18.8736 3.74975 18.9926 3.78165C20.7306 4.2351 22.3162 5.14365 23.5863 6.41372C24.8564 7.68379 25.7649 9.26946 26.2184 11.0074C26.2503 11.1264 26.2584 11.2505 26.2423 11.3726C26.2263 11.4947 26.1863 11.6124 26.1247 11.7191C26.0631 11.8257 25.9811 11.9192 25.8833 11.9941C25.7856 12.0691 25.6741 12.124 25.5551 12.1559C25.4759 12.1767 25.3944 12.1873 25.3125 12.1875C25.1059 12.1875 24.9051 12.1193 24.7413 11.9934C24.5775 11.8675 24.4598 11.691 24.4067 11.4914C24.0368 10.0726 23.2953 8.77818 22.2586 7.74144C21.2218 6.7047 19.9274 5.9632 18.5086 5.59337C18.3895 5.56167 18.2779 5.5068 18.18 5.43191C18.0821 5.35702 18 5.26357 17.9383 5.1569C17.8766 5.05024 17.8365 4.93246 17.8203 4.81029C17.8042 4.68812 17.8123 4.56397 17.8442 4.44493ZM17.5711 9.34337C19.1871 9.77462 20.2254 10.8129 20.6567 12.4289C20.7098 12.6285 20.8275 12.805 20.9913 12.9309C21.1551 13.0568 21.3559 13.125 21.5625 13.125C21.6444 13.1248 21.7259 13.1142 21.8051 13.0934C21.9241 13.0615 22.0356 13.0066 22.1333 12.9316C22.2311 12.8567 22.3131 12.7632 22.3747 12.6566C22.4363 12.5499 22.4763 12.4322 22.4923 12.3101C22.5084 12.188 22.5003 12.0639 22.4684 11.9449C21.8684 9.69962 20.3004 8.13165 18.0551 7.53165C17.9361 7.49987 17.8121 7.49183 17.69 7.508C17.5679 7.52416 17.4503 7.56421 17.3437 7.62585C17.2371 7.6875 17.1437 7.76954 17.0688 7.86728C16.9939 7.96502 16.939 8.07656 16.9072 8.19551C16.8755 8.31447 16.8674 8.43853 16.8836 8.56059C16.8997 8.68266 16.9398 8.80034 17.0014 8.90693C17.0631 9.01352 17.1451 9.10692 17.2429 9.18181C17.3406 9.25669 17.4521 9.31159 17.5711 9.34337ZM27.1734 20.5172C26.9645 22.1051 26.1847 23.5627 24.9796 24.6177C23.7745 25.6726 22.2266 26.2529 20.625 26.25C11.3203 26.25 3.75001 18.6797 3.75001 9.37501C3.74714 7.77339 4.32738 6.2255 5.38235 5.02043C6.43733 3.81536 7.8949 3.03552 9.48282 2.82657C9.88437 2.77754 10.291 2.85969 10.642 3.06076C10.993 3.26182 11.2696 3.57102 11.4305 3.94219L13.9055 9.46759V9.48165C14.0286 9.76577 14.0795 10.076 14.0535 10.3845C14.0275 10.6931 13.9256 10.9905 13.7567 11.25C13.7356 11.2816 13.7133 11.3109 13.6899 11.3402L11.25 14.2324C12.1277 16.016 13.9934 17.8652 15.8004 18.7453L18.6527 16.3184C18.6808 16.2948 18.7101 16.2729 18.7406 16.2527C19 16.0798 19.2983 15.9742 19.6087 15.9455C19.9191 15.9169 20.2318 15.9661 20.5184 16.0887L20.5336 16.0957L26.0543 18.5695C26.4261 18.7298 26.7361 19.0062 26.9378 19.3572C27.1395 19.7083 27.2222 20.1152 27.1734 20.5172ZM25.3125 20.2828H25.2996L19.7918 17.816L16.9383 20.243C16.9106 20.2664 16.8817 20.2883 16.8516 20.3086C16.5818 20.4886 16.2699 20.5955 15.9464 20.619C15.6228 20.6424 15.2988 20.5815 15.0059 20.4422C12.8109 19.3816 10.6231 17.2102 9.56134 15.0387C9.42075 14.7479 9.35766 14.4257 9.37819 14.1034C9.39872 13.781 9.50218 13.4694 9.67853 13.1988C9.6984 13.1671 9.72074 13.1369 9.74532 13.1086L12.1875 10.2129L9.72657 4.70509C9.72611 4.70041 9.72611 4.6957 9.72657 4.69102C8.59015 4.83926 7.54674 5.39668 6.79174 6.25889C6.03674 7.1211 5.62194 8.22896 5.62501 9.37501C5.62935 13.3519 7.2111 17.1647 10.0232 19.9768C12.8353 22.7889 16.6481 24.3707 20.625 24.375C21.7704 24.3789 22.8779 23.9656 23.7406 23.2122C24.6033 22.4589 25.1621 21.4171 25.3125 20.2816V20.2828Z" fill="#4E4E4E"/>
</svg>
