<svg width="50" height="49" viewBox="0 0 50 49" fill="none" xmlns="http://www.w3.org/2000/svg">
<path d="M14.6696 10.2084C14.6691 11.2914 14.2383 12.3298 13.4722 13.0952C12.706 13.8606 11.6672 14.2903 10.5842 14.2897C9.50125 14.2892 8.46286 13.8584 7.69747 13.0923C6.93208 12.3261 6.50239 11.2873 6.50293 10.2043C6.50347 9.12137 6.9342 8.08297 7.70035 7.31758C8.46651 6.55219 9.50534 6.12251 10.5883 6.12305C11.6713 6.12359 12.7097 6.55432 13.4751 7.32047C14.2405 8.08663 14.6701 9.12545 14.6696 10.2084ZM14.7921 17.3134H6.62543V42.8751H14.7921V17.3134ZM27.6954 17.3134H19.5696V42.8751H27.6138V29.4613C27.6138 21.9888 37.3525 21.2947 37.3525 29.4613V42.8751H45.4171V26.6847C45.4171 14.0876 31.0029 14.5572 27.6138 20.7434L27.6954 17.3134Z" fill="white"/>
</svg>
