<svg width="50" height="49" viewBox="0 0 50 49" fill="none" xmlns="http://www.w3.org/2000/svg">
<path d="M14.6706 10.2084C14.67 11.2914 14.2393 12.3298 13.4731 13.0952C12.707 13.8606 11.6682 14.2903 10.5852 14.2897C9.50223 14.2892 8.46383 13.8584 7.69844 13.0923C6.93305 12.3261 6.50337 11.2873 6.50391 10.2043C6.50445 9.12137 6.93517 8.08297 7.70133 7.31758C8.46749 6.55219 9.50631 6.12251 10.5893 6.12305C11.6722 6.12359 12.7106 6.55432 13.476 7.32047C14.2414 8.08663 14.6711 9.12545 14.6706 10.2084ZM14.7931 17.3134H6.62641V42.8751H14.7931V17.3134ZM27.6964 17.3134H19.5706V42.8751H27.6147V29.4613C27.6147 21.9888 37.3535 21.2947 37.3535 29.4613V42.8751H45.4181V26.6847C45.4181 14.0876 31.0039 14.5572 27.6147 20.7434L27.6964 17.3134Z" fill="white"/>
</svg>
