<svg width="23" height="23" viewBox="0 0 23 23" fill="none" xmlns="http://www.w3.org/2000/svg">
<g clip-path="url(#clip0_104_2476)">
<path d="M17.9119 12.4535L10.5802 12.4535V10.6206L17.9119 10.6206V7.87128L22.4941 11.5371L17.9119 15.2029V12.4535ZM18.8283 6.03837H16.3466C15.2884 5.10511 13.9833 4.49703 12.5881 4.28708C11.1928 4.07714 9.76664 4.27425 8.48065 4.85477C7.19465 5.43529 6.10348 6.37455 5.33807 7.55985C4.57266 8.74515 4.16553 10.1261 4.16553 11.5371C4.16553 12.948 4.57266 14.329 5.33807 15.5143C6.10348 16.6996 7.19465 17.6389 8.48065 18.2194C9.76664 18.7999 11.1928 18.997 12.5881 18.7871C13.9833 18.5772 15.2884 17.9691 16.3466 17.0358H18.8283C17.9754 18.1748 16.8686 19.0992 15.5959 19.7356C14.3232 20.3719 12.9196 20.7027 11.4967 20.7016C6.43513 20.7016 2.33216 16.5987 2.33216 11.5371C2.33216 6.47552 6.43513 2.37256 11.4967 2.37256C12.9196 2.37149 14.3232 2.70227 15.5959 3.33863C16.8686 3.97499 17.9754 4.89938 18.8283 6.03837Z" fill="#363636"/>
</g>
<defs>
<clipPath id="clip0_104_2476">
<rect width="21.9949" height="21.9949" fill="white" transform="matrix(-1 0 0 -1 22.4941 22.5345)"/>
</clipPath>
</defs>
</svg>
