<svg width="76" height="76" viewBox="0 0 76 76" fill="none" xmlns="http://www.w3.org/2000/svg">
<g clip-path="url(#clip0_103_2149)">
<path d="M58.1979 0.988571H18.4052C8.70952 0.988571 0.849609 8.84848 0.849609 18.5442V58.3369C0.849609 68.0326 8.70952 75.8925 18.4052 75.8925H58.1979C67.8936 75.8925 75.7535 68.0326 75.7535 58.3369V18.5442C75.7535 8.84848 67.8936 0.988571 58.1979 0.988571Z" fill="white"/>
<path d="M58.1979 0.988571H18.4052C8.70952 0.988571 0.849609 8.84848 0.849609 18.5442V58.3369C0.849609 68.0326 8.70952 75.8925 18.4052 75.8925H58.1979C67.8936 75.8925 75.7535 68.0326 75.7535 58.3369V18.5442C75.7535 8.84848 67.8936 0.988571 58.1979 0.988571Z" fill="#1D9BF0"/>
<path d="M59.2437 27.7349C59.2759 28.1992 59.2759 28.6636 59.2759 29.1323C59.2759 43.41 48.4066 59.8765 28.5316 59.8765V59.8678C22.6602 59.8763 16.9104 58.1947 11.9688 55.0239C12.8225 55.1266 13.6804 55.1778 14.5406 55.1798C19.4071 55.1837 24.1335 53.5515 27.9604 50.5455C25.7057 50.5029 23.5205 49.7567 21.7106 48.4114C19.9007 47.066 18.5564 45.1887 17.8657 43.0419C19.4845 43.354 21.1534 43.2904 22.7438 42.8558C17.703 41.8373 14.0763 37.4083 14.0763 32.2645V32.1276C15.579 32.9646 17.2608 33.4284 18.9802 33.4799C14.2325 30.3068 12.769 23.9905 15.6358 19.0521C18.3485 22.3903 21.7332 25.1205 25.5698 27.0654C29.4065 29.0103 33.6093 30.1263 37.9054 30.341C37.4771 28.4972 37.5403 26.5732 38.0889 24.7615C38.6374 22.9499 39.652 21.3139 41.0312 20.0174C45.3832 15.9264 52.2279 16.1362 56.3189 20.4859C58.7386 20.0081 61.0591 19.121 63.1805 17.8628C62.3738 20.3646 60.6859 22.4883 58.4305 23.8387C60.5725 23.5863 62.6643 23.013 64.6356 22.1378C63.1855 24.3095 61.3596 26.2046 59.2437 27.7349Z" fill="white"/>
</g>
<defs>
<clipPath id="clip0_103_2149">
<rect width="74.9039" height="74.9039" fill="white" transform="translate(0.849609 0.988571)"/>
</clipPath>
</defs>
</svg>
