<svg width="76" height="76" viewBox="0 0 76 76" fill="none" xmlns="http://www.w3.org/2000/svg">
<g clip-path="url(#clip0_90_13)">
<path d="M58.1979 0.988571H18.4052C8.70946 0.988571 0.849548 8.84848 0.849548 18.5442V58.3369C0.849548 68.0326 8.70946 75.8925 18.4052 75.8925H58.1979C67.8936 75.8925 75.7535 68.0326 75.7535 58.3369V18.5442C75.7535 8.84848 67.8936 0.988571 58.1979 0.988571Z" fill="white"/>
<path d="M58.1979 0.988571H18.4052C8.70946 0.988571 0.849548 8.84848 0.849548 18.5442V58.3369C0.849548 68.0326 8.70946 75.8925 18.4052 75.8925H58.1979C67.8936 75.8925 75.7535 68.0326 75.7535 58.3369V18.5442C75.7535 8.84848 67.8936 0.988571 58.1979 0.988571Z" fill="#1D9BF0"/>
<path d="M59.2431 27.7349C59.2752 28.1992 59.2752 28.6635 59.2752 29.1323C59.2752 43.41 48.406 59.8765 28.531 59.8765V59.8678C22.6596 59.8763 16.9098 58.1947 11.9681 55.0239C12.8219 55.1266 13.6798 55.1778 14.54 55.1798C19.4064 55.1837 24.1329 53.5515 27.9598 50.5454C25.705 50.5029 23.5199 49.7567 21.71 48.4114C19.9 47.066 18.5558 45.1887 17.8651 43.0419C19.4839 43.354 21.1528 43.2904 22.7432 42.8558C17.7024 41.8373 14.0757 37.4083 14.0757 32.2645V32.1276C15.5784 32.9646 17.2602 33.4284 18.9796 33.4799C14.2319 30.3068 12.7684 23.9905 15.6352 19.0521C18.3479 22.3903 21.7325 25.1205 25.5692 27.0654C29.4058 29.0103 33.6087 30.1263 37.9048 30.341C37.4765 28.4972 37.5397 26.5732 38.0883 24.7615C38.6368 22.9498 39.6514 21.3139 41.0306 20.0174C45.3826 15.9264 52.2272 16.1362 56.3183 20.4859C58.738 20.0081 61.0585 19.121 63.1799 17.8627C62.3732 20.3646 60.6852 22.4883 58.4299 23.8387C60.5719 23.5863 62.6637 23.0129 64.635 22.1378C63.1849 24.3095 61.359 26.2046 59.2431 27.7349Z" fill="white"/>
</g>
<defs>
<clipPath id="clip0_90_13">
<rect width="74.9039" height="74.9039" fill="white" transform="translate(0.849548 0.988571)"/>
</clipPath>
</defs>
</svg>
