<svg width="32" height="36" viewBox="0 0 32 36" fill="none" xmlns="http://www.w3.org/2000/svg">
<g clip-path="url(#clip0_8_113)">
<path d="M8.22487 16.1222L9.20182 18.7048C9.2197 18.7523 9.25209 18.7932 9.29463 18.8222C9.33716 18.8511 9.38777 18.8667 9.43964 18.8667C9.49151 18.8667 9.54213 18.8511 9.58466 18.8222C9.62719 18.7932 9.65958 18.7523 9.67746 18.7048L10.6544 16.1222C11.0451 15.0891 11.661 14.1509 12.4595 13.3723C13.2581 12.5937 14.2203 11.9933 15.2799 11.6123L17.9287 10.6598C17.9774 10.6423 18.0193 10.6107 18.0489 10.5692C18.0786 10.5278 18.0945 10.4785 18.0945 10.4279C18.0945 10.3774 18.0786 10.3281 18.0489 10.2866C18.0193 10.2452 17.9774 10.2135 17.9287 10.1961L15.2797 9.24352C14.2202 8.86258 13.258 8.26213 12.4595 7.48357C11.661 6.70502 11.0451 5.76688 10.6544 4.73384L9.67746 2.15121C9.65952 2.1038 9.6271 2.06289 9.58458 2.034C9.54206 2.00511 9.49147 1.98962 9.43964 1.98962C9.38781 1.98962 9.33723 2.00511 9.29471 2.034C9.25218 2.06289 9.21977 2.1038 9.20182 2.15121L8.22487 4.73384C7.83412 5.76689 7.21825 6.70503 6.41971 7.48358C5.62117 8.26213 4.65896 8.86258 3.59941 9.24352L0.950404 10.1961C0.901779 10.2135 0.859823 10.2452 0.830189 10.2866C0.800555 10.3281 0.784668 10.3774 0.784668 10.4279C0.784668 10.4785 0.800555 10.5278 0.830189 10.5692C0.859823 10.6107 0.901779 10.6423 0.950404 10.6598L3.59926 11.6123C4.65887 11.9932 5.62114 12.5937 6.41971 13.3723C7.21828 14.1509 7.83416 15.089 8.22487 16.1222ZM29.701 27.0306L27.0523 26.0782C25.9927 25.6973 25.0305 25.0968 24.232 24.3183C23.4334 23.5397 22.8176 22.6016 22.4268 21.5685L21.4499 18.9859C21.4319 18.9384 21.3995 18.8975 21.357 18.8687C21.3145 18.8398 21.2639 18.8243 21.2121 18.8243C21.1602 18.8243 21.1097 18.8398 21.0671 18.8687C21.0246 18.8975 20.9922 18.9384 20.9743 18.9859L19.9973 21.5683C19.6066 22.6014 18.9907 23.5396 18.1921 24.3181C17.3936 25.0967 16.4314 25.6972 15.3718 26.0782L12.723 27.0306C12.6744 27.0481 12.6324 27.0797 12.6028 27.1211C12.5731 27.1626 12.5572 27.2119 12.5572 27.2624C12.5572 27.313 12.5731 27.3623 12.6028 27.4037C12.6324 27.4452 12.6744 27.4768 12.723 27.4943L15.372 28.447C16.4315 28.828 17.3937 29.4284 18.1922 30.207C18.9907 30.9855 19.6066 31.9236 19.9973 32.9567L20.9743 35.5394C20.9922 35.5868 21.0246 35.6278 21.0671 35.6566C21.1097 35.6855 21.1602 35.701 21.2121 35.701C21.2639 35.701 21.3145 35.6855 21.357 35.6566C21.3995 35.6278 21.4319 35.5868 21.4499 35.5394L22.4268 32.9567C22.8176 31.9236 23.4334 30.9855 24.2319 30.2069C25.0304 29.4284 25.9926 28.8279 27.0522 28.447L29.7012 27.4943C29.7498 27.4768 29.7917 27.4452 29.8213 27.4037C29.851 27.3622 29.8668 27.3129 29.8668 27.2624C29.8668 27.2118 29.8509 27.1625 29.8213 27.1211C29.7916 27.0796 29.7496 27.048 29.701 27.0306ZM29.7883 3.89019L28.5325 3.43867C28.0303 3.2581 27.5741 2.97347 27.1956 2.60439C26.8171 2.23531 26.5252 1.79058 26.34 1.30086L25.8768 0.0767182C25.8684 0.0541947 25.853 0.0347426 25.8329 0.0209938C25.8127 0.00724505 25.7887 -0.000136682 25.7641 -0.000152562C25.7395 -0.000168443 25.7155 0.0071823 25.6954 0.020905C25.6752 0.0346278 25.6598 0.0540601 25.6514 0.0765726L25.1883 1.30057C25.003 1.79031 24.7111 2.23505 24.3325 2.60415C23.9539 2.97324 23.4978 3.25791 22.9955 3.43852L21.7397 3.89005C21.7166 3.89829 21.6966 3.91325 21.6825 3.93291C21.6685 3.95256 21.6609 3.97596 21.6609 3.99994C21.6609 4.02392 21.6685 4.04732 21.6825 4.06698C21.6966 4.08663 21.7166 4.10159 21.7397 4.10984L22.9953 4.5615C23.4977 4.7421 23.9539 5.02677 24.3325 5.3959C24.7111 5.76502 25.003 6.20982 25.1883 6.6996L25.6514 7.92375C25.6598 7.94626 25.6752 7.96571 25.6953 7.97944C25.7155 7.99318 25.7395 8.00054 25.7641 8.00054C25.7887 8.00054 25.8127 7.99318 25.8328 7.97944C25.853 7.96571 25.8683 7.94626 25.8768 7.92375L26.34 6.69946C26.5252 6.2097 26.8172 5.76494 27.1957 5.39586C27.5743 5.02678 28.0305 4.74216 28.5328 4.56165L29.7885 4.10998C29.8116 4.10173 29.8315 4.08675 29.8456 4.06709C29.8597 4.04742 29.8672 4.02402 29.8672 4.00004C29.8672 3.97606 29.8596 3.95266 29.8455 3.93301C29.8314 3.91337 29.8114 3.89842 29.7883 3.89019Z" fill="black"/>
</g>
<defs>
<clipPath id="clip0_8_113">
<rect width="32" height="36" fill="white"/>
</clipPath>
</defs>
</svg>
