<svg width="33" height="33" viewBox="0 0 33 33" fill="none" xmlns="http://www.w3.org/2000/svg">
<path d="M16.1773 4.5516C13.7226 4.5516 11.3684 5.52673 9.63265 7.26247C7.89691 8.99822 6.92178 11.3524 6.92178 13.8071C6.92178 17.5913 9.27797 21.2419 11.8642 24.0702C13.1873 25.5102 14.6302 26.8354 16.1773 28.0315C17.7243 26.8363 19.1672 25.512 20.4904 24.0728C23.0766 21.2419 25.4328 17.5926 25.4328 13.8071C25.4328 11.3524 24.4577 8.99822 22.7219 7.26247C20.9862 5.52673 18.632 4.5516 16.1773 4.5516ZM16.1773 31.2789L15.4276 30.7632L15.4236 30.7606L15.4157 30.754L15.3892 30.7354L15.2901 30.6654C14.7426 30.2674 14.2073 29.8529 13.6849 29.4225C12.346 28.3226 11.0855 27.1306 9.91263 25.8551C7.21002 22.8987 4.27734 18.616 4.27734 13.8071C4.27734 10.651 5.53108 7.62425 7.76276 5.39258C9.99443 3.16091 13.0212 1.90717 16.1773 1.90717C19.3334 1.90717 22.3601 3.16091 24.5918 5.39258C26.8235 7.62425 28.0772 10.651 28.0772 13.8071C28.0772 18.616 25.1446 22.9 22.4419 25.8551C20.9107 27.5207 19.2306 29.0432 17.4228 30.4036C17.2722 30.5161 17.1201 30.6268 16.9667 30.7354L16.9389 30.754L16.931 30.7606L16.9283 30.7619L16.1773 31.2789ZM16.1773 11.1627C15.4759 11.1627 14.8033 11.4413 14.3074 11.9372C13.8115 12.4331 13.5329 13.1058 13.5329 13.8071C13.5329 14.5085 13.8115 15.1811 14.3074 15.677C14.8033 16.1729 15.4759 16.4515 16.1773 16.4515C16.8786 16.4515 17.5513 16.1729 18.0472 15.677C18.5431 15.1811 18.8217 14.5085 18.8217 13.8071C18.8217 13.1058 18.5431 12.4331 18.0472 11.9372C17.5513 11.4413 16.8786 11.1627 16.1773 11.1627ZM10.8884 13.8071C10.8884 12.4044 11.4456 11.0592 12.4375 10.0673C13.4294 9.07546 14.7746 8.51825 16.1773 8.51825C17.58 8.51825 18.9252 9.07546 19.9171 10.0673C20.9089 11.0592 21.4662 12.4044 21.4662 13.8071C21.4662 15.2098 20.9089 16.555 19.9171 17.5469C18.9252 18.5388 17.58 19.096 16.1773 19.096C14.7746 19.096 13.4294 18.5388 12.4375 17.5469C11.4456 16.555 10.8884 15.2098 10.8884 13.8071Z" fill="black"/>
</svg>
