<svg width="26" height="25" viewBox="0 0 26 25" fill="none" xmlns="http://www.w3.org/2000/svg">
<g clip-path="url(#clip0_103_2143)">
<path d="M12.8162 3.39156C10.9206 3.39156 9.1027 4.14456 7.76235 5.48492C6.422 6.82527 5.669 8.64318 5.669 10.5387C5.669 13.4609 7.48846 16.2799 9.48558 18.4639C10.5073 19.5759 11.6215 20.5992 12.8162 21.5229C14.0108 20.5999 15.125 19.5773 16.1467 18.4659C18.1439 16.2799 19.9633 13.4619 19.9633 10.5387C19.9633 8.64318 19.2103 6.82527 17.87 5.48492C16.5296 4.14456 14.7117 3.39156 12.8162 3.39156ZM12.8162 24.0305L12.2372 23.6323L12.2342 23.6303L12.228 23.6252L12.2076 23.6109L12.131 23.5568C11.7083 23.2494 11.2949 22.9294 10.8915 22.597C9.85761 21.7477 8.88425 20.8272 7.97855 19.8423C5.89158 17.5593 3.62695 14.2522 3.62695 10.5387C3.62695 8.10159 4.5951 5.76428 6.31841 4.04097C8.04172 2.31766 10.379 1.34952 12.8162 1.34952C15.2533 1.34952 17.5906 2.31766 19.3139 4.04097C21.0372 5.76428 22.0054 8.10159 22.0054 10.5387C22.0054 14.2522 19.7407 17.5603 17.6538 19.8423C16.4713 21.1284 15.174 22.3041 13.778 23.3546C13.6616 23.4415 13.5442 23.5269 13.4257 23.6109L13.4043 23.6252L13.3981 23.6303L13.3961 23.6313L12.8162 24.0305ZM12.8162 8.49668C12.2746 8.49668 11.7552 8.71182 11.3722 9.09478C10.9893 9.47773 10.7741 9.99714 10.7741 10.5387C10.7741 11.0803 10.9893 11.5997 11.3722 11.9827C11.7552 12.3656 12.2746 12.5808 12.8162 12.5808C13.3577 12.5808 13.8771 12.3656 14.2601 11.9827C14.6431 11.5997 14.8582 11.0803 14.8582 10.5387C14.8582 9.99714 14.6431 9.47773 14.2601 9.09478C13.8771 8.71182 13.3577 8.49668 12.8162 8.49668ZM8.73207 10.5387C8.73207 9.45555 9.16235 8.41675 9.92827 7.65083C10.6942 6.88492 11.733 6.45463 12.8162 6.45463C13.8993 6.45463 14.9381 6.88492 15.704 7.65083C16.47 8.41675 16.9002 9.45555 16.9002 10.5387C16.9002 11.6219 16.47 12.6607 15.704 13.4266C14.9381 14.1925 13.8993 14.6228 12.8162 14.6228C11.733 14.6228 10.6942 14.1925 9.92827 13.4266C9.16235 12.6607 8.73207 11.6219 8.73207 10.5387Z" fill="black"/>
</g>
<defs>
<clipPath id="clip0_103_2143">
<rect width="24.5045" height="24.5045" fill="white" transform="translate(0.564453 0.328461)"/>
</clipPath>
</defs>
</svg>
