<svg width="26" height="25" viewBox="0 0 26 25" fill="none" xmlns="http://www.w3.org/2000/svg">
<g clip-path="url(#clip0_12_4)">
<path d="M12.8171 3.39156C10.9216 3.39156 9.10365 4.14456 7.7633 5.48492C6.42295 6.82527 5.66994 8.64318 5.66994 10.5387C5.66994 13.4609 7.48941 16.2799 9.48653 18.4639C10.5082 19.5759 11.6224 20.5992 12.8171 21.5229C14.0118 20.5999 15.1259 19.5773 16.1477 18.4659C18.1448 16.2799 19.9643 13.4619 19.9643 10.5387C19.9643 8.64318 19.2113 6.82527 17.8709 5.48492C16.5306 4.14456 14.7126 3.39156 12.8171 3.39156ZM12.8171 24.0305L12.2382 23.6323L12.2351 23.6303L12.229 23.6252L12.2086 23.6109L12.132 23.5568C11.7092 23.2494 11.2959 22.9294 10.8925 22.597C9.85856 21.7477 8.8852 20.8272 7.9795 19.8423C5.89253 17.5593 3.6279 14.2522 3.6279 10.5387C3.6279 8.10159 4.59604 5.76428 6.31935 4.04097C8.04266 2.31766 10.38 1.34952 12.8171 1.34952C15.2542 1.34952 17.5915 2.31766 19.3148 4.04097C21.0382 5.76428 22.0063 8.10159 22.0063 10.5387C22.0063 14.2522 19.7417 17.5603 17.6547 19.8423C16.4722 21.1284 15.1749 22.3041 13.7789 23.3546C13.6626 23.4415 13.5451 23.5269 13.4267 23.6109L13.4052 23.6252L13.3991 23.6303L13.397 23.6313L12.8171 24.0305ZM12.8171 8.49668C12.2755 8.49668 11.7561 8.71182 11.3732 9.09478C10.9902 9.47773 10.7751 9.99714 10.7751 10.5387C10.7751 11.0803 10.9902 11.5997 11.3732 11.9827C11.7561 12.3656 12.2755 12.5808 12.8171 12.5808C13.3587 12.5808 13.8781 12.3656 14.261 11.9827C14.644 11.5997 14.8591 11.0803 14.8591 10.5387C14.8591 9.99714 14.644 9.47773 14.261 9.09478C13.8781 8.71182 13.3587 8.49668 12.8171 8.49668ZM8.73301 10.5387C8.73301 9.45555 9.1633 8.41675 9.92921 7.65083C10.6951 6.88492 11.7339 6.45463 12.8171 6.45463C13.9003 6.45463 14.9391 6.88492 15.705 7.65083C16.4709 8.41675 16.9012 9.45555 16.9012 10.5387C16.9012 11.6219 16.4709 12.6607 15.705 13.4266C14.9391 14.1925 13.9003 14.6228 12.8171 14.6228C11.7339 14.6228 10.6951 14.1925 9.92921 13.4266C9.1633 12.6607 8.73301 11.6219 8.73301 10.5387Z" fill="black"/>
</g>
<defs>
<clipPath id="clip0_12_4">
<rect width="24.5045" height="24.5045" fill="white" transform="translate(0.564758 0.328461)"/>
</clipPath>
</defs>
</svg>
